<?xml version="1.0"?>
<svg width="215" height="100" xmlns="http://www.w3.org/2000/svg" xmlns:svg="http://www.w3.org/2000/svg">
 <g class="layer">
  <title>Layer 1</title>
  <defs>
   <clipPath id="svg_19">
    <rect fill="black" height="100" id="svg_20" width="215"/>
   </clipPath>
  </defs>
  <defs>
   <clipPath id="svg_4">
    <rect fill="white" height="100" id="svg_22" width="215"/>
   </clipPath>
  </defs>
  <g id="svg_11">
   <path d="m29.41,13.63l-2.55,-7.25l6.52,1.4c6.27,1.34 13.52,5.44 18.73,11.96c3.6,-6.49 7.95,-12.37 13.25,-17.4l5.5,5.21c-1.73,4.19 -2.52,7.53 -2.82,11.32c4.8,-1.86 10.8,-2.95 18.09,-2.44l10.83,0.77l-9.05,7.07c-1.9,1.48 -3.57,2.92 -5.02,4.32c5.72,0 11.89,1.49 19.08,4.58l8.91,3.83l-8.81,4.16c-4.18,1.97 -7.12,4.39 -10.04,7.63c5.96,2.28 11.55,6.17 15.59,10.34l7.17,7.36l-9.49,0.13c-4.97,0.06 -10.81,0.23 -15.89,1.03c2.24,4.47 3.74,9.53 4.55,15.15l1.76,12.42l-7.79,-8.57c-5.62,-6.19 -12.63,-10.89 -21.16,-14.05l-3.75,-1.39c-2.99,1.82 -5.93,3.98 -8.81,6.37l1.01,1.04l-1.97,-0.22c-6.03,5.15 -11.79,11.35 -17.31,17.74l-1.38,1.61l-1.9,-0.49c-2.82,-0.72 -5.29,-1.44 -7.55,-2.28l-1.25,-0.46l-0.71,-1.29l-2.58,-4.72l-0.16,-0.31l-1.43,-0.16l-7.58,-0.81l-0.81,-0.09l-0.71,-0.49c-0.91,-0.65 -1.91,-1.36 -2.96,-2.1c-0.95,-0.68 -1.94,-1.38 -2.94,-2.09l-3.58,-2.53l2.61,-3.83c5.52,-8.09 11.82,-14.49 17.5,-20.27c1.08,-1.09 2.13,-2.16 3.16,-3.21c2.05,-8.67 6.21,-16.16 11.83,-21.8c-2.02,-5.73 -4.05,-11.46 -6.06,-17.2l-0.03,0.01z" id="svg_7" stroke="#9841FF" stroke-width="7"/>
   <path d="m93.67,44.23l0,-21.06l12.46,0l0,4.8l-7.97,0l0,3.14l7.2,0l0,4.79l-7.2,0l0,3.55l7.97,0l0,4.79l-12.46,0l0,-0.01z" fill="white" id="svg_14"/>
   <path d="m81.83,79.93l0,-4.61l12.51,0c0.3,0 0.44,-0.18 0.44,-0.52l0,-3.24c0,-0.45 -0.16,-0.71 -0.48,-0.77l-7.44,-1.81c-3.35,-0.76 -5.03,-3.41 -5.03,-7.95l0,-2.72c0,-5.58 2.36,-8.37 7.08,-8.37l8.92,0l3.15,2.86l0,4.61l-11.7,0c-0.3,0 -0.44,0.18 -0.44,0.52l0,3.05c0,0.42 0.15,0.66 0.48,0.76l7.44,1.72c3.35,0.82 5.03,3.49 5.03,8l0,2.95c0,5.58 -2.36,8.37 -7.08,8.37l-9.73,0l-3.13,-2.86l-0.02,0.01z" fill="white" id="svg_15"/>
   <path d="m106.43,74.41l0,-16.1c0,-5.58 2.36,-8.37 7.08,-8.37l9,0c4.72,0 7.08,2.8 7.08,8.37l0,16.1c0,4.31 -1.4,6.95 -4.19,7.9l2.58,5.96l-0.8,1.66l-6.07,0l-3.06,-7.14l-4.54,0c-4.72,0 -7.08,-2.8 -7.08,-8.37l0,-0.01zm7,0.38c0,0.34 0.14,0.52 0.44,0.52l8.28,0c0.3,0 0.44,-0.18 0.44,-0.52l0,-16.86c0,-0.34 -0.14,-0.52 -0.44,-0.52l-8.28,0c-0.3,0 -0.44,0.18 -0.44,0.52l0,16.86z" fill="white" id="svg_16"/>
   <path d="m135.22,74.41l0,-24.48l7,0l0,24.86c0,0.34 0.14,0.52 0.44,0.52l7.48,0c0.3,0 0.44,-0.18 0.44,-0.52l0,-24.86l7,0l0,24.48c0,5.58 -2.36,8.37 -7.08,8.37l-8.2,0c-4.72,0 -7.08,-2.8 -7.08,-8.37z" fill="white" id="svg_17"/>
   <path d="m161.17,81.26l7.85,-31.33l10.46,0l7.84,31.33l-0.84,1.53l-5.88,0l-1.36,-5.86l-9.98,0l-1.36,5.86l-5.88,0l-0.85,-1.53zm9.94,-11.81l6.27,0l-2.9,-12.05l-0.47,0l-2.9,12.05z" fill="white" id="svg_18"/>
   <path d="m191.12,82.78l0,-32.85l10.38,0c7.98,0 11.98,4.72 11.98,14.19l0,4.48c0,9.46 -4,14.19 -11.98,14.19l-10.38,0l0,-0.01zm7,-7.47l3.78,0c3.05,0 4.58,-1.83 4.58,-5.48l0,-6.95c0,-3.65 -1.53,-5.48 -4.58,-5.48l-3.78,0l0,17.91z" fill="white" id="svg_21"/>
  </g>
  <text fill="#ffffff" font-family="Helvetica" font-size="24" font-weight="bold" id="svg_29" opacity="0.95" stroke="#9841FF" stroke-width="0" text-anchor="middle" transform="matrix(1.00955 0 0 1.1993 127.189 230.773)" x="30.52" xml:space="preserve" y="-155.17">SPORTS</text>
 </g>
</svg>